<?xml version="1.0" standalone="no"?>
<!DOCTYPE svg PUBLIC "-//W3C//DTD SVG 20010904//EN"
 "http://www.w3.org/TR/2001/REC-SVG-20010904/DTD/svg10.dtd">
<svg version="1.0" xmlns="http://www.w3.org/2000/svg"
 width="81.000000pt" height="51.000000pt" viewBox="0 0 81.000000 51.000000"
 preserveAspectRatio="xMidYMid meet">
<metadata>
Created by potrace 1.16, written by Peter Selinger 2001-2019
</metadata>
<g transform="translate(0.000000,51.000000) scale(0.100000,-0.100000)"
fill="#000000" stroke="none">
<path d="M81 454 c-13 -16 -21 -41 -21 -63 0 -33 12 -48 158 -193 214 -213
190 -213 404 0 146 145 158 160 158 193 0 55 -32 89 -82 89 -39 0 -47 -6 -160
-117 l-118 -117 -118 117 c-113 111 -121 117 -160 117 -32 0 -45 -6 -61 -26z"/>
</g>
</svg>
